<svg height="511pt" viewBox="-29 1 511 511.99998" width="511pt" xmlns="http://www.w3.org/2000/svg"><path d="m433.617188 280.117188c0 82.234374.710937 157.519531-76.8125 157.519531h-35.65625l-31.777344-72.59375 102.90625-100.558594zm0 0" fill="#e0824a"/><path d="m20.699219 280.117188c0 82.234374-.710938 157.519531 76.8125 157.519531h35.65625l31.777343-72.59375-102.90625-100.558594zm0 0" fill="#e0824a"/><path d="m61.90625 280.117188 11.628906-4.398438-11.496094-11.234375-41.339843 15.632813c0 82.234374-.710938 157.519531 76.8125 157.519531h35.65625l.066406-.144531c-71.988281-3.523438-71.328125-77.132813-71.328125-157.375zm0 0" fill="#cc7643"/><path d="m17.3125 219.429688c0-58.375 21.671875-113.3125 61.019531-154.703126 39.675781-41.738281 92.53125-64.726562 148.828125-64.726562 56.292969 0 109.148438 22.988281 148.824219 64.726562 39.347656 41.390626 61.019531 96.328126 61.019531 154.703126zm0 0" fill="#e0824a"/><path d="m252.914062 1.628906c-8.480468-1.078125-17.078124-1.628906-25.753906-1.628906-56.296875 0-109.152344 22.988281-148.828125 64.726562-39.347656 41.390626-61.019531 96.328126-61.019531 154.703126h51.511719c0-58.375 21.667969-113.3125 61.015625-154.703126 33.5625-35.304687 76.550781-57.1875 123.074218-63.097656zm0 0" fill="#cc7643"/><path d="m453.816406 243.640625c0 23.773437-19.273437 43.046875-43.042968 43.046875-23.773438 0-43.046876-19.273438-43.046876-43.046875s19.273438-43.042969 43.046876-43.042969c23.769531 0 43.042968 19.269532 43.042968 43.042969zm0 0" fill="#e3b098"/><path d="m.5 243.640625c0 23.773437 19.273438 43.046875 43.046875 43.046875s22.441406-19.273438 22.441406-43.046875 1.332031-43.042969-22.441406-43.042969-43.046875 19.269532-43.046875 43.042969zm0 0" fill="#e3b098"/><path d="m136.917969 388.878906s-58.0625 43.757813-58.0625 123.121094h296.605469c0-79.363281-58.0625-123.121094-58.0625-123.121094zm0 0" fill="#fadc60"/><path d="m167.824219 388.878906h-30.90625s-58.0625 43.757813-58.0625 123.121094h30.90625c0-79.363281 58.0625-123.121094 58.0625-123.121094zm0 0" fill="#f2c42c"/><path d="m281.300781 398.503906c0 29.902344-24.242187 54.140625-54.140625 54.140625-29.902344 0-54.144531-24.238281-54.144531-54.140625s24.242187-54.144531 54.144531-54.144531c29.898438 0 54.140625 24.242187 54.140625 54.144531zm0 0" fill="#e3b098"/><path d="m167.230469 92.152344c-2.328125-2.175782-6.035157-1.796875-7.890625.792968-30.949219 43.183594-115.488282 107.304688-115.9375 107.644532-.566406 6.199218-.867188 12.480468-.867188 18.839844 0 107.257812 82.660156 194.207031 184.625 194.207031s184.621094-86.949219 184.621094-194.207031c0-6.355469-.300781-12.636719-.867188-18.835938-149.585937-28.296875-225.589843-91.554688-243.683593-108.441406zm0 0" fill="#fbc4ac"/><path d="m73.441406 219.429688c0-3.753907.105469-24.964844.304688-43-17.386719 14.332031-30.167969 24.027343-30.34375 24.160156-.566406 6.199218-.867188 12.484375-.867188 18.839844 0 107.257812 82.660156 194.207031 184.625 194.207031 5.203125 0 10.355469-.238281 15.449219-.683594-94.730469-8.261719-169.167969-91.742187-169.167969-193.523437zm0 0" fill="#e3b098"/><path d="m321.148438 250.101562c-4.265626 0-7.726563-3.460937-7.726563-7.726562v-18.277344c0-4.265625 3.460937-7.722656 7.726563-7.722656 4.265624 0 7.726562 3.457031 7.726562 7.722656v18.277344c0 4.265625-3.460938 7.726562-7.726562 7.726562zm0 0" fill="#3a484a"/><path d="m333.59375 276.964844h-24.890625c-4.269531 0-7.726563-3.460938-7.726563-7.726563 0-4.269531 3.457032-7.726562 7.726563-7.726562h24.890625c4.265625 0 7.726562 3.457031 7.726562 7.726562 0 4.265625-3.460937 7.726563-7.726562 7.726563zm0 0" fill="#f98084"/><path d="m133.167969 250.101562c-4.265625 0-7.726563-3.460937-7.726563-7.726562v-18.277344c0-4.265625 3.460938-7.722656 7.726563-7.722656 4.269531 0 7.726562 3.457031 7.726562 7.722656v18.277344c0 4.265625-3.457031 7.726562-7.726562 7.726562zm0 0" fill="#3a484a"/><path d="m145.613281 276.964844h-24.890625c-4.265625 0-7.726562-3.460938-7.726562-7.726563 0-4.269531 3.460937-7.726562 7.726562-7.726562h24.890625c4.269531 0 7.726563 3.457031 7.726563 7.726562 0 4.265625-3.457032 7.726563-7.726563 7.726563zm0 0" fill="#f98084"/><path d="m227.160156 275.929688c-8.78125 0-17.03125-3.671876-22.628906-10.078126-2.808594-3.214843-2.480469-8.09375.730469-10.902343 3.214843-2.808594 8.09375-2.480469 10.902343.730469 2.664063 3.050781 6.671876 4.796874 10.996094 4.796874 4.320313 0 8.328125-1.746093 10.992188-4.796874 2.808594-3.210938 7.6875-3.539063 10.902344-.730469 3.214843 2.808593 3.539062 7.6875.734374 10.902343-5.601562 6.40625-13.847656 10.078126-22.628906 10.078126zm0 0" fill="#3a484a"/><path d="m430.929688 385.546875c0 46.980469-38.085938 85.070313-85.070313 85.070313s-85.070313-38.089844-85.070313-85.070313c0-46.984375 38.085938-85.074219 85.070313-85.074219s85.070313 38.089844 85.070313 85.074219zm0 0" fill="#42c3e2"/><path d="m388.074219 377.820312h-34.488281v-34.488281c0-4.265625-3.460938-7.726562-7.726563-7.726562-4.269531 0-7.726563 3.460937-7.726563 7.726562v34.488281h-34.488281c-4.265625 0-7.726562 3.457032-7.726562 7.726563 0 4.265625 3.460937 7.726563 7.726562 7.726563h34.488281v34.488281c0 4.265625 3.457032 7.726562 7.726563 7.726562 4.265625 0 7.726563-3.460937 7.726563-7.726562v-34.488281h34.488281c4.265625 0 7.726562-3.460938 7.726562-7.726563 0-4.269531-3.460937-7.726563-7.726562-7.726563zm0 0" fill="#efedee"/></svg>